<svg xmlns="http://www.w3.org/2000/svg" width="420" height="300" viewBox="0 0 420 300"><defs><linearGradient id="a" x1="28" x2="392" y1="20" y2="283" gradientUnits="userSpaceOnUse"><stop stop-color="#0A1628"/><stop offset="1" stop-color="#1565C0"/></linearGradient><linearGradient id="b" x1="93" x2="286" y1="75" y2="231" gradientUnits="userSpaceOnUse"><stop stop-color="#fff"/><stop offset="1" stop-color="#64B5F6"/></linearGradient><filter id="s" x="-20%" y="-20%" width="140%" height="140%"><feDropShadow dx="0" dy="20" stdDeviation="20" flood-color="#041021" flood-opacity=".2"/></filter></defs><rect x="32" y="34" width="356" height="232" rx="46" fill="url(#a)" filter="url(#s)"/><circle cx="96" cy="83" r="39" fill="#64B5F6" opacity=".16"/><rect x="93" y="82" width="74" height="74" rx="22" fill="#fff" opacity=".95"/><rect x="187" y="82" width="74" height="74" rx="22" fill="url(#b)"/><rect x="93" y="176" width="74" height="74" rx="22" fill="url(#b)"/><rect x="187" y="176" width="74" height="74" rx="22" fill="#fff" opacity=".95"/><path d="M303 110v70M268 145h70" stroke="#fff" stroke-width="16" stroke-linecap="round"/><path d="M116 121h28M210 121h28M116 215h28M210 215h28" stroke="#0A1628" stroke-width="8" stroke-linecap="round" opacity=".8"/></svg>
