<svg xmlns="http://www.w3.org/2000/svg" width="180" height="180" viewBox="0 0 180 180" role="img" aria-label="Catégories">
  <defs><linearGradient id="bg" x1="18" x2="162" y1="10" y2="170" gradientUnits="userSpaceOnUse"><stop stop-color="#FFFFFF"/><stop offset="1" stop-color="#FFF7DE"/></linearGradient><linearGradient id="gold" x1="45" x2="140" y1="35" y2="145" gradientUnits="userSpaceOnUse"><stop stop-color="#FFE082"/><stop offset="1" stop-color="#F9A825"/></linearGradient><filter id="s"><feDropShadow dx="0" dy="18" stdDeviation="14" flood-color="#0A1628" flood-opacity=".16"/></filter></defs>
  <rect x="18" y="18" width="144" height="144" rx="42" fill="url(#bg)" filter="url(#s)"/>
  <path d="M48 66c0-10 8-18 18-18h18l12 14h20c10 0 18 8 18 18v34c0 10-8 18-18 18H66c-10 0-18-8-18-18V66Z" fill="url(#gold)"/>
  <path d="M65 88h50M65 107h36" stroke="#0A1628" stroke-width="8" stroke-linecap="round" opacity=".85"/>
  <circle cx="126" cy="51" r="15" fill="#1565C0"/><path d="M120 51h12M126 45v12" stroke="#fff" stroke-width="5" stroke-linecap="round"/>
</svg>
