<svg xmlns="http://www.w3.org/2000/svg" width="320" height="320" viewBox="0 0 320 320" role="img"><defs><linearGradient id="bg" x1="20" x2="300" y1="10" y2="290" gradientUnits="userSpaceOnUse"><stop stop-color="#0A1628"/><stop offset=".62" stop-color="#123C6B"/><stop offset="1" stop-color="#1565C0"/></linearGradient><linearGradient id="ice" x1="70" x2="250" y1="40" y2="250" gradientUnits="userSpaceOnUse"><stop stop-color="#fff"/><stop offset="1" stop-color="#64B5F6"/></linearGradient><linearGradient id="gold" x1="55" x2="265" y1="40" y2="270" gradientUnits="userSpaceOnUse"><stop stop-color="#FFF8D8"/><stop offset="1" stop-color="#F9A825"/></linearGradient><filter id="s" x="-20%" y="-20%" width="140%" height="140%"><feDropShadow dx="0" dy="18" stdDeviation="18" flood-color="#041021" flood-opacity=".25"/></filter></defs><rect x="28" y="28" width="264" height="264" rx="64" fill="url(#bg)" filter="url(#s)"/><path d="M98 205h122c30 0 54-22 54-50s-23-49-51-49c-11-31-40-52-75-52-42 0-76 32-79 73-25 5-44 25-44 51 0 29 24 27 73 27z" fill="#fff" opacity=".95"/><path d="M160 103v74" stroke="#1565C0" stroke-width="14" stroke-linecap="round"/><path d="M132 143l28-28 28 28" fill="none" stroke="#1565C0" stroke-width="14" stroke-linecap="round" stroke-linejoin="round"/><rect x="101" y="214" width="118" height="24" rx="12" fill="url(#ice)"/></svg>
