<svg xmlns="http://www.w3.org/2000/svg" width="320" height="320" viewBox="0 0 320 320" role="img"><defs><linearGradient id="bg" x1="20" x2="300" y1="10" y2="290" gradientUnits="userSpaceOnUse"><stop stop-color="#0A1628"/><stop offset=".62" stop-color="#123C6B"/><stop offset="1" stop-color="#1565C0"/></linearGradient><linearGradient id="ice" x1="70" x2="250" y1="40" y2="250" gradientUnits="userSpaceOnUse"><stop stop-color="#fff"/><stop offset="1" stop-color="#64B5F6"/></linearGradient><linearGradient id="gold" x1="55" x2="265" y1="40" y2="270" gradientUnits="userSpaceOnUse"><stop stop-color="#FFF8D8"/><stop offset="1" stop-color="#F9A825"/></linearGradient><filter id="s" x="-20%" y="-20%" width="140%" height="140%"><feDropShadow dx="0" dy="18" stdDeviation="18" flood-color="#041021" flood-opacity=".25"/></filter></defs><rect x="28" y="28" width="264" height="264" rx="64" fill="url(#bg)" filter="url(#s)"/><circle cx="95" cy="78" r="46" fill="#64B5F6" opacity=".18"/><circle cx="236" cy="226" r="62" fill="#fff" opacity=".1"/><path d="M89 204c32 39 111 39 142 0" fill="none" stroke="url(#ice)" stroke-width="12" stroke-linecap="round"/><path d="M160 74v114" stroke="#fff" stroke-width="18" stroke-linecap="round"/><path d="M116 145l44 44 44-44" fill="none" stroke="#fff" stroke-width="18" stroke-linecap="round" stroke-linejoin="round"/><rect x="84" y="212" width="152" height="34" rx="17" fill="#fff" opacity=".94"/><circle cx="111" cy="229" r="7" fill="#2E7D32"/><circle cx="136" cy="229" r="7" fill="#64B5F6"/><circle cx="161" cy="229" r="7" fill="#1565C0"/></svg>
