<svg xmlns="http://www.w3.org/2000/svg" width="320" height="320" viewBox="0 0 320 320" role="img"><defs><linearGradient id="bg" x1="20" x2="300" y1="10" y2="290" gradientUnits="userSpaceOnUse"><stop stop-color="#0A1628"/><stop offset=".62" stop-color="#123C6B"/><stop offset="1" stop-color="#1565C0"/></linearGradient><linearGradient id="ice" x1="70" x2="250" y1="40" y2="250" gradientUnits="userSpaceOnUse"><stop stop-color="#fff"/><stop offset="1" stop-color="#64B5F6"/></linearGradient><linearGradient id="gold" x1="55" x2="265" y1="40" y2="270" gradientUnits="userSpaceOnUse"><stop stop-color="#FFF8D8"/><stop offset="1" stop-color="#F9A825"/></linearGradient><filter id="s" x="-20%" y="-20%" width="140%" height="140%"><feDropShadow dx="0" dy="18" stdDeviation="18" flood-color="#041021" flood-opacity=".25"/></filter></defs><rect x="28" y="28" width="264" height="264" rx="64" fill="url(#bg)" filter="url(#s)"/><rect x="76" y="82" width="168" height="156" rx="28" fill="#fff" opacity=".94"/><rect x="101" y="177" width="23" height="34" rx="11" fill="#1565C0"/><rect x="145" y="141" width="23" height="70" rx="11" fill="#64B5F6"/><rect x="189" y="111" width="23" height="100" rx="11" fill="#2E7D32"/><path d="M97 136c23 4 38-29 61-22 16 5 20 22 39 17 10-3 18-12 25-22" fill="none" stroke="#0A1628" stroke-width="8" stroke-linecap="round" stroke-linejoin="round"/><circle cx="222" cy="109" r="8" fill="#F9A825"/></svg>
