<svg xmlns="http://www.w3.org/2000/svg" width="320" height="320" viewBox="0 0 320 320" role="img"><defs><linearGradient id="bg" x1="20" x2="300" y1="10" y2="290" gradientUnits="userSpaceOnUse"><stop stop-color="#0A1628"/><stop offset=".62" stop-color="#123C6B"/><stop offset="1" stop-color="#1565C0"/></linearGradient><linearGradient id="ice" x1="70" x2="250" y1="40" y2="250" gradientUnits="userSpaceOnUse"><stop stop-color="#fff"/><stop offset="1" stop-color="#64B5F6"/></linearGradient><linearGradient id="gold" x1="55" x2="265" y1="40" y2="270" gradientUnits="userSpaceOnUse"><stop stop-color="#FFF8D8"/><stop offset="1" stop-color="#F9A825"/></linearGradient><filter id="s" x="-20%" y="-20%" width="140%" height="140%"><feDropShadow dx="0" dy="18" stdDeviation="18" flood-color="#041021" flood-opacity=".25"/></filter></defs><rect x="28" y="28" width="264" height="264" rx="64" fill="url(#bg)" filter="url(#s)"/><rect x="75" y="76" width="74" height="74" rx="22" fill="#fff" opacity=".95"/><rect x="171" y="76" width="74" height="74" rx="22" fill="url(#ice)"/><rect x="75" y="172" width="74" height="74" rx="22" fill="url(#ice)"/><rect x="171" y="172" width="74" height="74" rx="22" fill="#fff" opacity=".95"/><path d="M102 113h20M112 103v20M198 110h20M198 126h29M99 205l12 13 28-34M193 203h30" stroke="#0A1628" stroke-width="8" stroke-linecap="round" stroke-linejoin="round"/><circle cx="236" cy="68" r="20" fill="url(#gold)"/></svg>
