<svg xmlns="http://www.w3.org/2000/svg" width="256" height="256" viewBox="0 0 256 256" role="img" aria-label="WhatsApp">
  <defs>
    <linearGradient id="g" x1="42" x2="214" y1="30" y2="224" gradientUnits="userSpaceOnUse">
      <stop stop-color="#46F08A"/>
      <stop offset="0.48" stop-color="#25D366"/>
      <stop offset="1" stop-color="#128C7E"/>
    </linearGradient>
    <filter id="shadow" x="-25%" y="-25%" width="150%" height="150%">
      <feDropShadow dx="0" dy="20" stdDeviation="18" flood-color="#041021" flood-opacity="0.22"/>
    </filter>
  </defs>
  <circle cx="128" cy="128" r="102" fill="url(#g)" filter="url(#shadow)"/>
  <circle cx="128" cy="128" r="82" fill="none" stroke="#FFFFFF" stroke-opacity="0.18" stroke-width="2"/>
  <path fill="#FFFFFF" d="M188.5 67.5A80.8 80.8 0 0 0 61.4 164l-9.8 35.9 36.8-9.7a80.6 80.6 0 0 0 38.7 9.9h.1A80.8 80.8 0 0 0 188.5 67.5Zm-61.3 119h-.1a66.9 66.9 0 0 1-34.1-9.3l-2.4-1.4-21.9 5.8 5.8-21.3-1.6-2.5a67 67 0 1 1 54.3 28.7Z"/>
  <path fill="#FFFFFF" d="M165.2 145.7c-2.1-1.1-12.5-6.2-14.5-6.9-1.9-.7-3.3-1.1-4.7 1.1-1.4 2.1-5.4 6.9-6.7 8.3-1.2 1.4-2.5 1.6-4.6.5-2.1-1.1-8.9-3.3-17-10.5-6.3-5.6-10.5-12.5-11.8-14.6-1.2-2.1-.1-3.3.9-4.4.9-1 2.1-2.5 3.2-3.8 1.1-1.2 1.4-2.1 2.1-3.5.7-1.4.4-2.7-.2-3.8-.5-1.1-4.7-11.3-6.5-15.5-1.7-4.1-3.4-3.5-4.7-3.6h-4c-1.4 0-3.8.5-5.8 2.7-1.9 2.1-7.5 7.3-7.5 17.8s7.7 20.7 8.8 22.1c1.1 1.4 15.1 23.1 36.6 32.4 5.1 2.2 9.1 3.5 12.2 4.5 5.1 1.6 9.8 1.4 13.5.9 4.1-.6 12.5-5.1 14.3-10.1 1.8-4.9 1.8-9.2 1.2-10.1-.5-.9-1.9-1.4-4-2.5Z"/>
</svg>
